<svg xmlns="http://www.w3.org/2000/svg" xmlns:xlink="http://www.w3.org/1999/xlink" width="2000" zoomAndPan="magnify" viewBox="0 0 1500 1499.999933" height="2000" preserveAspectRatio="xMidYMid meet" version="1.0"><defs><g/></defs><g fill="#2e6417" fill-opacity="1"><g transform="translate(55.617345, 740.499924)"><g><path d="M 0.40625 0 L 7.921875 -18.53125 L 8.296875 -18.53125 L 15.828125 0 L 11.796875 0 L 11.078125 -1.921875 L 5.15625 -1.921875 L 4.453125 0 Z M 6.453125 -5.28125 L 9.75 -5.28125 L 8.125 -9.921875 Z M 6.453125 -5.28125 "/></g></g></g><g fill="#2e6417" fill-opacity="1"><g transform="translate(71.939754, 740.499924)"><g><path d="M 10.90625 0 L 7.296875 -6.828125 L 5.578125 -6.828125 L 5.578125 0 L 2 0 L 2 -17.875 L 9.046875 -17.875 C 10.117188 -17.875 11.023438 -17.648438 11.765625 -17.203125 C 12.503906 -16.765625 13.082031 -16.191406 13.5 -15.484375 C 13.914062 -14.773438 14.171875 -14.007812 14.265625 -13.1875 C 14.367188 -12.363281 14.304688 -11.554688 14.078125 -10.765625 C 13.859375 -9.972656 13.476562 -9.269531 12.9375 -8.65625 C 12.394531 -8.050781 11.679688 -7.625 10.796875 -7.375 L 14.953125 0 Z M 5.578125 -10.296875 L 8.71875 -10.296875 C 9.207031 -10.296875 9.597656 -10.425781 9.890625 -10.6875 C 10.179688 -10.957031 10.375 -11.289062 10.46875 -11.6875 C 10.570312 -12.09375 10.570312 -12.492188 10.46875 -12.890625 C 10.375 -13.296875 10.179688 -13.628906 9.890625 -13.890625 C 9.597656 -14.160156 9.207031 -14.296875 8.71875 -14.296875 L 5.578125 -14.296875 Z M 5.578125 -10.296875 "/></g></g></g><g fill="#2e6417" fill-opacity="1"><g transform="translate(87.262327, 740.499924)"><g><path d="M 11.25 0 L 2 0 L 2 -17.875 L 10.953125 -17.875 L 10.953125 -14.296875 L 5.578125 -14.296875 L 5.578125 -10.71875 L 10.28125 -10.71875 L 10.28125 -7.15625 L 5.578125 -7.15625 L 5.578125 -3.578125 L 11.25 -3.578125 Z M 11.25 0 "/></g></g></g><g fill="#2e6417" fill-opacity="1"><g transform="translate(99.860337, 740.499924)"><g><path d="M 5.578125 -9.71875 L 5.578125 0 L 2 0 L 2 -18.25 L 2.953125 -18.25 L 11.96875 -7.75 L 11.96875 -17.84375 L 15.578125 -17.84375 L 15.578125 0.375 L 14.625 0.375 Z M 5.578125 -9.71875 "/></g></g></g><g fill="#2e6417" fill-opacity="1"><g transform="translate(117.457549, 740.499924)"><g><path d="M 7.328125 -17.875 C 8.804688 -17.875 10.101562 -17.625 11.21875 -17.125 C 12.34375 -16.625 13.273438 -15.945312 14.015625 -15.09375 C 14.753906 -14.25 15.3125 -13.289062 15.6875 -12.21875 C 16.0625 -11.15625 16.25 -10.0625 16.25 -8.9375 C 16.25 -7.8125 16.0625 -6.710938 15.6875 -5.640625 C 15.3125 -4.578125 14.753906 -3.617188 14.015625 -2.765625 C 13.273438 -1.921875 12.34375 -1.25 11.21875 -0.75 C 10.101562 -0.25 8.804688 0 7.328125 0 L 2 0 L 2 -17.875 Z M 7.328125 -14.296875 L 5.578125 -14.296875 L 5.578125 -3.578125 L 7.328125 -3.578125 C 8.328125 -3.578125 9.179688 -3.765625 9.890625 -4.140625 C 10.597656 -4.523438 11.160156 -5.039062 11.578125 -5.6875 C 12.003906 -6.332031 12.289062 -7.035156 12.4375 -7.796875 C 12.582031 -8.566406 12.582031 -9.328125 12.4375 -10.078125 C 12.289062 -10.835938 12.003906 -11.539062 11.578125 -12.1875 C 11.160156 -12.832031 10.597656 -13.34375 9.890625 -13.71875 C 9.179688 -14.101562 8.328125 -14.296875 7.328125 -14.296875 Z M 7.328125 -14.296875 "/></g></g></g><g fill="#2e6417" fill-opacity="1"><g transform="translate(135.054762, 740.499924)"><g><path d="M 11.25 0 L 2 0 L 2 -17.875 L 10.953125 -17.875 L 10.953125 -14.296875 L 5.578125 -14.296875 L 5.578125 -10.71875 L 10.28125 -10.71875 L 10.28125 -7.15625 L 5.578125 -7.15625 L 5.578125 -3.578125 L 11.25 -3.578125 Z M 11.25 0 "/></g></g></g><g fill="#2e6417" fill-opacity="1"><g transform="translate(147.652772, 740.499924)"><g><path d="M 2 -17.875 L 5.578125 -17.875 L 5.578125 -3.578125 L 11.25 -3.578125 L 11.25 0 L 2 0 Z M 2 -17.875 "/></g></g></g><g fill="#2e6417" fill-opacity="1"><g transform="translate(159.975815, 740.499924)"><g><path d="M 2 -17.875 L 5.578125 -17.875 L 5.578125 -3.578125 L 11.25 -3.578125 L 11.25 0 L 2 0 Z M 2 -17.875 "/></g></g></g><g fill="#000000" fill-opacity="1"><g transform="translate(172.300925, 740.499924)"><g/></g></g><g fill="#000000" fill-opacity="1"><g transform="translate(179.399798, 740.499924)"><g><path d="M 14.5 0 L 10.921875 0 L 10.921875 -7.15625 L 5.578125 -7.15625 L 5.578125 0 L 2 0 L 2 -17.875 L 5.578125 -17.875 L 5.578125 -10.71875 L 10.921875 -10.71875 L 10.921875 -17.875 L 14.5 -17.875 Z M 14.5 0 "/></g></g></g><g fill="#000000" fill-opacity="1"><g transform="translate(195.922181, 740.499924)"><g><path d="M 10.59375 0.25 C 9.0625 0.25 7.71875 -0.00390625 6.5625 -0.515625 C 5.40625 -1.035156 4.441406 -1.734375 3.671875 -2.609375 C 2.910156 -3.484375 2.335938 -4.46875 1.953125 -5.5625 C 1.566406 -6.664062 1.375 -7.796875 1.375 -8.953125 C 1.375 -10.117188 1.566406 -11.25 1.953125 -12.34375 C 2.335938 -13.445312 2.910156 -14.4375 3.671875 -15.3125 C 4.441406 -16.1875 5.40625 -16.878906 6.5625 -17.390625 C 7.71875 -17.910156 9.0625 -18.171875 10.59375 -18.171875 C 12.132812 -18.171875 13.484375 -17.910156 14.640625 -17.390625 C 15.796875 -16.878906 16.753906 -16.1875 17.515625 -15.3125 C 18.285156 -14.4375 18.863281 -13.445312 19.25 -12.34375 C 19.632812 -11.25 19.828125 -10.117188 19.828125 -8.953125 C 19.828125 -7.796875 19.632812 -6.664062 19.25 -5.5625 C 18.863281 -4.46875 18.285156 -3.484375 17.515625 -2.609375 C 16.753906 -1.734375 15.796875 -1.035156 14.640625 -0.515625 C 13.484375 -0.00390625 12.132812 0.25 10.59375 0.25 Z M 10.59375 -3.453125 C 11.613281 -3.453125 12.488281 -3.648438 13.21875 -4.046875 C 13.957031 -4.453125 14.539062 -4.984375 14.96875 -5.640625 C 15.40625 -6.296875 15.695312 -7.015625 15.84375 -7.796875 C 16 -8.578125 16 -9.359375 15.84375 -10.140625 C 15.695312 -10.929688 15.40625 -11.65625 14.96875 -12.3125 C 14.539062 -12.96875 13.957031 -13.492188 13.21875 -13.890625 C 12.488281 -14.296875 11.613281 -14.5 10.59375 -14.5 C 9.582031 -14.5 8.707031 -14.296875 7.96875 -13.890625 C 7.238281 -13.492188 6.65625 -12.96875 6.21875 -12.3125 C 5.789062 -11.65625 5.5 -10.929688 5.34375 -10.140625 C 5.195312 -9.359375 5.195312 -8.578125 5.34375 -7.796875 C 5.5 -7.015625 5.789062 -6.296875 6.21875 -5.640625 C 6.65625 -4.984375 7.238281 -4.453125 7.96875 -4.046875 C 8.707031 -3.648438 9.582031 -3.453125 10.59375 -3.453125 Z M 10.59375 -3.453125 "/></g></g></g><g fill="#000000" fill-opacity="1"><g transform="translate(217.093829, 740.499924)"><g><path d="M 10.203125 -10.296875 L 17.25 -18.15625 L 18.375 -18.15625 L 18.375 0 L 14.75 0 L 14.78125 -9.96875 L 10.203125 -5.171875 L 5.625 -9.96875 L 5.625 0 L 2 0 L 2 -18.15625 L 3.15625 -18.15625 Z M 10.203125 -10.296875 "/></g></g></g><g fill="#000000" fill-opacity="1"><g transform="translate(237.490598, 740.499924)"><g><path d="M 11.25 0 L 2 0 L 2 -17.875 L 10.953125 -17.875 L 10.953125 -14.296875 L 5.578125 -14.296875 L 5.578125 -10.71875 L 10.28125 -10.71875 L 10.28125 -7.15625 L 5.578125 -7.15625 L 5.578125 -3.578125 L 11.25 -3.578125 Z M 11.25 0 "/></g></g></g><g fill="#000000" fill-opacity="1"><g transform="translate(250.088608, 740.499924)"><g/></g></g><g fill="#000000" fill-opacity="1"><g transform="translate(257.18748, 740.499924)"><g><path d="M 1.171875 -1.15625 L 1.625 -4.90625 C 2.3125 -4.414062 2.988281 -4.066406 3.65625 -3.859375 C 4.332031 -3.648438 4.945312 -3.53125 5.5 -3.5 C 6.050781 -3.46875 6.457031 -3.457031 6.71875 -3.46875 C 7.257812 -3.507812 7.71875 -3.695312 8.09375 -4.03125 C 8.46875 -4.375 8.628906 -4.789062 8.578125 -5.28125 C 8.546875 -5.789062 8.351562 -6.175781 8 -6.4375 C 7.644531 -6.707031 7.21875 -6.925781 6.71875 -7.09375 C 5.789062 -7.445312 4.921875 -7.851562 4.109375 -8.3125 C 3.304688 -8.769531 2.65625 -9.335938 2.15625 -10.015625 C 1.664062 -10.703125 1.421875 -11.546875 1.421875 -12.546875 C 1.421875 -13.546875 1.632812 -14.445312 2.0625 -15.25 C 2.488281 -16.0625 3.082031 -16.707031 3.84375 -17.1875 C 4.613281 -17.675781 5.488281 -17.945312 6.46875 -18 C 6.9375 -18.03125 7.507812 -18.007812 8.1875 -17.9375 C 8.863281 -17.875 9.773438 -17.644531 10.921875 -17.25 L 10.46875 -13.796875 C 9.488281 -14.203125 8.707031 -14.429688 8.125 -14.484375 C 7.539062 -14.546875 7.109375 -14.566406 6.828125 -14.546875 C 6.191406 -14.515625 5.726562 -14.296875 5.4375 -13.890625 C 5.144531 -13.492188 5.015625 -13.046875 5.046875 -12.546875 C 5.097656 -12.046875 5.316406 -11.664062 5.703125 -11.40625 C 6.085938 -11.15625 6.535156 -10.9375 7.046875 -10.75 C 7.984375 -10.414062 8.84375 -10.003906 9.625 -9.515625 C 10.40625 -9.023438 11.03125 -8.429688 11.5 -7.734375 C 11.976562 -7.046875 12.21875 -6.226562 12.21875 -5.28125 C 12.21875 -4.289062 12 -3.394531 11.5625 -2.59375 C 11.132812 -1.800781 10.515625 -1.160156 9.703125 -0.671875 C 8.898438 -0.191406 7.941406 0.0820312 6.828125 0.15625 C 6.492188 0.164062 6.035156 0.148438 5.453125 0.109375 C 4.878906 0.0664062 4.226562 -0.046875 3.5 -0.234375 C 2.769531 -0.429688 1.992188 -0.738281 1.171875 -1.15625 Z M 1.171875 -1.15625 "/></g></g></g><g fill="#000000" fill-opacity="1"><g transform="translate(270.410383, 740.499924)"><g><path d="M 11.25 0 L 2 0 L 2 -17.875 L 10.953125 -17.875 L 10.953125 -14.296875 L 5.578125 -14.296875 L 5.578125 -10.71875 L 10.28125 -10.71875 L 10.28125 -7.15625 L 5.578125 -7.15625 L 5.578125 -3.578125 L 11.25 -3.578125 Z M 11.25 0 "/></g></g></g><g fill="#000000" fill-opacity="1"><g transform="translate(283.008393, 740.499924)"><g><path d="M 10.90625 0 L 7.296875 -6.828125 L 5.578125 -6.828125 L 5.578125 0 L 2 0 L 2 -17.875 L 9.046875 -17.875 C 10.117188 -17.875 11.023438 -17.648438 11.765625 -17.203125 C 12.503906 -16.765625 13.082031 -16.191406 13.5 -15.484375 C 13.914062 -14.773438 14.171875 -14.007812 14.265625 -13.1875 C 14.367188 -12.363281 14.304688 -11.554688 14.078125 -10.765625 C 13.859375 -9.972656 13.476562 -9.269531 12.9375 -8.65625 C 12.394531 -8.050781 11.679688 -7.625 10.796875 -7.375 L 14.953125 0 Z M 5.578125 -10.296875 L 8.71875 -10.296875 C 9.207031 -10.296875 9.597656 -10.425781 9.890625 -10.6875 C 10.179688 -10.957031 10.375 -11.289062 10.46875 -11.6875 C 10.570312 -12.09375 10.570312 -12.492188 10.46875 -12.890625 C 10.375 -13.296875 10.179688 -13.628906 9.890625 -13.890625 C 9.597656 -14.160156 9.207031 -14.296875 8.71875 -14.296875 L 5.578125 -14.296875 Z M 5.578125 -10.296875 "/></g></g></g><g fill="#000000" fill-opacity="1"><g transform="translate(298.330966, 740.499924)"><g><path d="M 7.546875 0.375 L 0.15625 -17.875 L 4.28125 -17.875 L 6.65625 -11.921875 L 7.953125 -8.21875 L 9.21875 -11.796875 L 11.625 -17.875 L 15.75 -17.875 L 8.34375 0.375 Z M 7.546875 0.375 "/></g></g></g><g fill="#000000" fill-opacity="1"><g transform="translate(314.253439, 740.499924)"><g><path d="M 5.578125 0 L 2 0 L 2 -17.875 L 5.578125 -17.875 Z M 5.578125 0 "/></g></g></g><g fill="#000000" fill-opacity="1"><g transform="translate(321.852235, 740.499924)"><g><path d="M 13.375 -13.71875 C 13.039062 -13.90625 12.632812 -14.082031 12.15625 -14.25 C 11.6875 -14.414062 11.0625 -14.5 10.28125 -14.5 C 9.257812 -14.5 8.390625 -14.300781 7.671875 -13.90625 C 6.953125 -13.519531 6.375 -13 5.9375 -12.34375 C 5.507812 -11.695312 5.21875 -10.984375 5.0625 -10.203125 C 4.914062 -9.429688 4.914062 -8.65625 5.0625 -7.875 C 5.21875 -7.101562 5.507812 -6.394531 5.9375 -5.75 C 6.375 -5.101562 6.953125 -4.582031 7.671875 -4.1875 C 8.390625 -3.789062 9.257812 -3.59375 10.28125 -3.59375 C 11.0625 -3.59375 11.742188 -3.6875 12.328125 -3.875 C 12.921875 -4.0625 13.382812 -4.238281 13.71875 -4.40625 L 14.203125 -0.703125 C 13.648438 -0.484375 13.015625 -0.300781 12.296875 -0.15625 C 11.578125 -0.0195312 10.90625 0.046875 10.28125 0.046875 C 8.757812 0.046875 7.429688 -0.203125 6.296875 -0.703125 C 5.160156 -1.210938 4.210938 -1.898438 3.453125 -2.765625 C 2.703125 -3.640625 2.140625 -4.613281 1.765625 -5.6875 C 1.390625 -6.757812 1.203125 -7.867188 1.203125 -9.015625 C 1.203125 -10.171875 1.390625 -11.285156 1.765625 -12.359375 C 2.140625 -13.429688 2.703125 -14.398438 3.453125 -15.265625 C 4.210938 -16.140625 5.160156 -16.828125 6.296875 -17.328125 C 7.429688 -17.835938 8.757812 -18.09375 10.28125 -18.09375 C 11.570312 -18.09375 12.742188 -17.863281 13.796875 -17.40625 Z M 13.375 -13.71875 "/></g></g></g><g fill="#000000" fill-opacity="1"><g transform="translate(336.899852, 740.499924)"><g><path d="M 11.25 0 L 2 0 L 2 -17.875 L 10.953125 -17.875 L 10.953125 -14.296875 L 5.578125 -14.296875 L 5.578125 -10.71875 L 10.28125 -10.71875 L 10.28125 -7.15625 L 5.578125 -7.15625 L 5.578125 -3.578125 L 11.25 -3.578125 Z M 11.25 0 "/></g></g></g><g fill="#000000" fill-opacity="1"><g transform="translate(349.497862, 740.499924)"><g><path d="M 1.171875 -1.15625 L 1.625 -4.90625 C 2.3125 -4.414062 2.988281 -4.066406 3.65625 -3.859375 C 4.332031 -3.648438 4.945312 -3.53125 5.5 -3.5 C 6.050781 -3.46875 6.457031 -3.457031 6.71875 -3.46875 C 7.257812 -3.507812 7.71875 -3.695312 8.09375 -4.03125 C 8.46875 -4.375 8.628906 -4.789062 8.578125 -5.28125 C 8.546875 -5.789062 8.351562 -6.175781 8 -6.4375 C 7.644531 -6.707031 7.21875 -6.925781 6.71875 -7.09375 C 5.789062 -7.445312 4.921875 -7.851562 4.109375 -8.3125 C 3.304688 -8.769531 2.65625 -9.335938 2.15625 -10.015625 C 1.664062 -10.703125 1.421875 -11.546875 1.421875 -12.546875 C 1.421875 -13.546875 1.632812 -14.445312 2.0625 -15.25 C 2.488281 -16.0625 3.082031 -16.707031 3.84375 -17.1875 C 4.613281 -17.675781 5.488281 -17.945312 6.46875 -18 C 6.9375 -18.03125 7.507812 -18.007812 8.1875 -17.9375 C 8.863281 -17.875 9.773438 -17.644531 10.921875 -17.25 L 10.46875 -13.796875 C 9.488281 -14.203125 8.707031 -14.429688 8.125 -14.484375 C 7.539062 -14.546875 7.109375 -14.566406 6.828125 -14.546875 C 6.191406 -14.515625 5.726562 -14.296875 5.4375 -13.890625 C 5.144531 -13.492188 5.015625 -13.046875 5.046875 -12.546875 C 5.097656 -12.046875 5.316406 -11.664062 5.703125 -11.40625 C 6.085938 -11.15625 6.535156 -10.9375 7.046875 -10.75 C 7.984375 -10.414062 8.84375 -10.003906 9.625 -9.515625 C 10.40625 -9.023438 11.03125 -8.429688 11.5 -7.734375 C 11.976562 -7.046875 12.21875 -6.226562 12.21875 -5.28125 C 12.21875 -4.289062 12 -3.394531 11.5625 -2.59375 C 11.132812 -1.800781 10.515625 -1.160156 9.703125 -0.671875 C 8.898438 -0.191406 7.941406 0.0820312 6.828125 0.15625 C 6.492188 0.164062 6.035156 0.148438 5.453125 0.109375 C 4.878906 0.0664062 4.226562 -0.046875 3.5 -0.234375 C 2.769531 -0.429688 1.992188 -0.738281 1.171875 -1.15625 Z M 1.171875 -1.15625 "/></g></g></g></svg>