<svg xmlns="http://www.w3.org/2000/svg" xmlns:xlink="http://www.w3.org/1999/xlink" width="2000" zoomAndPan="magnify" viewBox="0 0 1500 1499.999933" height="2000" preserveAspectRatio="xMidYMid meet" version="1.0"><defs><g/></defs><g fill="#2e6417" fill-opacity="1"><g transform="translate(22.100362, 813.774174)"><g><path d="M 1.921875 0 L 38.046875 -88.921875 L 39.84375 -88.921875 L 75.953125 0 L 56.640625 0 L 53.15625 -9.234375 L 24.71875 -9.234375 L 21.359375 0 Z M 30.953125 -25.3125 L 46.796875 -25.3125 L 39 -47.640625 Z M 30.953125 -25.3125 "/></g></g></g><g fill="#2e6417" fill-opacity="1"><g transform="translate(100.460398, 813.774174)"><g><path d="M 52.3125 0 L 35.046875 -32.765625 L 26.765625 -32.765625 L 26.765625 0 L 9.59375 0 L 9.59375 -85.796875 L 43.4375 -85.796875 C 48.5625 -85.796875 52.898438 -84.734375 56.453125 -82.609375 C 60.015625 -80.492188 62.796875 -77.734375 64.796875 -74.328125 C 66.796875 -70.929688 68.035156 -67.253906 68.515625 -63.296875 C 68.992188 -59.335938 68.691406 -55.457031 67.609375 -51.65625 C 66.535156 -47.851562 64.695312 -44.492188 62.09375 -41.578125 C 59.5 -38.660156 56.082031 -36.601562 51.84375 -35.40625 L 71.765625 0 Z M 26.765625 -49.4375 L 41.875 -49.4375 C 44.195312 -49.4375 46.054688 -50.078125 47.453125 -51.359375 C 48.859375 -52.640625 49.800781 -54.238281 50.28125 -56.15625 C 50.757812 -58.082031 50.757812 -60.003906 50.28125 -61.921875 C 49.800781 -63.835938 48.859375 -65.4375 47.453125 -66.71875 C 46.054688 -68 44.195312 -68.640625 41.875 -68.640625 L 26.765625 -68.640625 Z M 26.765625 -49.4375 "/></g></g></g><g fill="#2e6417" fill-opacity="1"><g transform="translate(174.020427, 813.774174)"><g><path d="M 54 0 L 9.59375 0 L 9.59375 -85.796875 L 52.5625 -85.796875 L 52.5625 -68.640625 L 26.765625 -68.640625 L 26.765625 -51.484375 L 49.3125 -51.484375 L 49.3125 -34.3125 L 26.765625 -34.3125 L 26.765625 -17.15625 L 54 -17.15625 Z M 54 0 "/></g></g></g><g fill="#2e6417" fill-opacity="1"><g transform="translate(234.500445, 813.774174)"><g><path d="M 26.765625 -46.6875 L 26.765625 0 L 9.59375 0 L 9.59375 -87.59375 L 14.15625 -87.59375 L 57.484375 -37.203125 L 57.484375 -85.6875 L 74.765625 -85.6875 L 74.765625 1.796875 L 70.203125 1.796875 Z M 26.765625 -46.6875 "/></g></g></g><g fill="#2e6417" fill-opacity="1"><g transform="translate(318.980494, 813.774174)"><g><path d="M 35.15625 -85.796875 C 42.28125 -85.796875 48.519531 -84.59375 53.875 -82.1875 C 59.238281 -79.789062 63.695312 -76.550781 67.25 -72.46875 C 70.8125 -68.394531 73.492188 -63.796875 75.296875 -58.671875 C 77.097656 -53.554688 78 -48.296875 78 -42.890625 C 78 -37.492188 77.097656 -32.234375 75.296875 -27.109375 C 73.492188 -21.992188 70.8125 -17.394531 67.25 -13.3125 C 63.695312 -9.238281 59.238281 -6 53.875 -3.59375 C 48.519531 -1.195312 42.28125 0 35.15625 0 L 9.59375 0 L 9.59375 -85.796875 Z M 35.15625 -68.640625 L 26.765625 -68.640625 L 26.765625 -17.15625 L 35.15625 -17.15625 C 39.957031 -17.15625 44.054688 -18.078125 47.453125 -19.921875 C 50.859375 -21.765625 53.582031 -24.222656 55.625 -27.296875 C 57.664062 -30.378906 59.023438 -33.757812 59.703125 -37.4375 C 60.378906 -41.113281 60.378906 -44.769531 59.703125 -48.40625 C 59.023438 -52.050781 57.664062 -55.414062 55.625 -58.5 C 53.582031 -61.582031 50.859375 -64.039062 47.453125 -65.875 C 44.054688 -67.71875 39.957031 -68.640625 35.15625 -68.640625 Z M 35.15625 -68.640625 "/></g></g></g><g fill="#2e6417" fill-opacity="1"><g transform="translate(403.460544, 813.774174)"><g><path d="M 54 0 L 9.59375 0 L 9.59375 -85.796875 L 52.5625 -85.796875 L 52.5625 -68.640625 L 26.765625 -68.640625 L 26.765625 -51.484375 L 49.3125 -51.484375 L 49.3125 -34.3125 L 26.765625 -34.3125 L 26.765625 -17.15625 L 54 -17.15625 Z M 54 0 "/></g></g></g><g fill="#2e6417" fill-opacity="1"><g transform="translate(463.94055, 813.774174)"><g><path d="M 9.59375 -85.796875 L 26.765625 -85.796875 L 26.765625 -17.15625 L 54 -17.15625 L 54 0 L 9.59375 0 Z M 9.59375 -85.796875 "/></g></g></g><g fill="#2e6417" fill-opacity="1"><g transform="translate(523.100594, 813.774174)"><g><path d="M 9.59375 -85.796875 L 26.765625 -85.796875 L 26.765625 -17.15625 L 54 -17.15625 L 54 0 L 9.59375 0 Z M 9.59375 -85.796875 "/></g></g></g><g fill="#000000" fill-opacity="1"><g transform="translate(582.268282, 813.774174)"><g/></g></g><g fill="#000000" fill-opacity="1"><g transform="translate(616.348293, 813.774174)"><g><path d="M 69.59375 0 L 52.4375 0 L 52.4375 -34.3125 L 26.765625 -34.3125 L 26.765625 0 L 9.59375 0 L 9.59375 -85.796875 L 26.765625 -85.796875 L 26.765625 -51.484375 L 52.4375 -51.484375 L 52.4375 -85.796875 L 69.59375 -85.796875 Z M 69.59375 0 "/></g></g></g><g fill="#000000" fill-opacity="1"><g transform="translate(695.668328, 813.774174)"><g><path d="M 50.875 1.203125 C 43.519531 1.203125 37.0625 -0.0351562 31.5 -2.515625 C 25.9375 -4.992188 21.316406 -8.332031 17.640625 -12.53125 C 13.960938 -16.738281 11.203125 -21.484375 9.359375 -26.765625 C 7.515625 -32.046875 6.59375 -37.460938 6.59375 -43.015625 C 6.59375 -48.578125 7.515625 -54 9.359375 -59.28125 C 11.203125 -64.5625 13.960938 -69.300781 17.640625 -73.5 C 21.316406 -77.695312 25.9375 -81.035156 31.5 -83.515625 C 37.0625 -85.992188 43.519531 -87.234375 50.875 -87.234375 C 58.238281 -87.234375 64.695312 -85.992188 70.25 -83.515625 C 75.8125 -81.035156 80.429688 -77.695312 84.109375 -73.5 C 87.796875 -69.300781 90.554688 -64.5625 92.390625 -59.28125 C 94.234375 -54 95.15625 -48.578125 95.15625 -43.015625 C 95.15625 -37.460938 94.234375 -32.046875 92.390625 -26.765625 C 90.554688 -21.484375 87.796875 -16.738281 84.109375 -12.53125 C 80.429688 -8.332031 75.8125 -4.992188 70.25 -2.515625 C 64.695312 -0.0351562 58.238281 1.203125 50.875 1.203125 Z M 50.875 -16.5625 C 55.757812 -16.5625 59.960938 -17.519531 63.484375 -19.4375 C 67.003906 -21.351562 69.800781 -23.890625 71.875 -27.046875 C 73.957031 -30.210938 75.359375 -33.675781 76.078125 -37.4375 C 76.796875 -41.195312 76.796875 -44.957031 76.078125 -48.71875 C 75.359375 -52.476562 73.957031 -55.9375 71.875 -59.09375 C 69.800781 -62.257812 67.003906 -64.800781 63.484375 -66.71875 C 59.960938 -68.632812 55.757812 -69.59375 50.875 -69.59375 C 46 -69.59375 41.800781 -68.632812 38.28125 -66.71875 C 34.757812 -64.800781 31.957031 -62.257812 29.875 -59.09375 C 27.800781 -55.9375 26.398438 -52.476562 25.671875 -48.71875 C 24.953125 -44.957031 24.953125 -41.195312 25.671875 -37.4375 C 26.398438 -33.675781 27.800781 -30.210938 29.875 -27.046875 C 31.957031 -23.890625 34.757812 -21.351562 38.28125 -19.4375 C 41.800781 -17.519531 46 -16.5625 50.875 -16.5625 Z M 50.875 -16.5625 "/></g></g></g><g fill="#000000" fill-opacity="1"><g transform="translate(797.30838, 813.774174)"><g><path d="M 48.953125 -49.4375 L 82.796875 -87.125 L 88.203125 -87.125 L 88.203125 0 L 70.796875 0 L 70.921875 -47.875 L 48.953125 -24.84375 L 27 -47.875 L 27 0 L 9.59375 0 L 9.59375 -87.125 L 15.125 -87.125 Z M 48.953125 -49.4375 "/></g></g></g><g fill="#000000" fill-opacity="1"><g transform="translate(895.228416, 813.774174)"><g><path d="M 54 0 L 9.59375 0 L 9.59375 -85.796875 L 52.5625 -85.796875 L 52.5625 -68.640625 L 26.765625 -68.640625 L 26.765625 -51.484375 L 49.3125 -51.484375 L 49.3125 -34.3125 L 26.765625 -34.3125 L 26.765625 -17.15625 L 54 -17.15625 Z M 54 0 "/></g></g></g><g fill="#000000" fill-opacity="1"><g transform="translate(955.708444, 813.774174)"><g/></g></g><g fill="#000000" fill-opacity="1"><g transform="translate(989.788466, 813.774174)"><g><path d="M 5.640625 -5.515625 L 7.796875 -23.515625 C 11.078125 -21.203125 14.335938 -19.546875 17.578125 -18.546875 C 20.816406 -17.546875 23.753906 -16.960938 26.390625 -16.796875 C 29.035156 -16.640625 31 -16.601562 32.28125 -16.6875 C 34.84375 -16.84375 37.019531 -17.738281 38.8125 -19.375 C 40.613281 -21.019531 41.394531 -23 41.15625 -25.3125 C 41 -27.800781 40.078125 -29.679688 38.390625 -30.953125 C 36.710938 -32.234375 34.675781 -33.273438 32.28125 -34.078125 C 27.800781 -35.753906 23.617188 -37.691406 19.734375 -39.890625 C 15.859375 -42.097656 12.738281 -44.84375 10.375 -48.125 C 8.019531 -51.40625 6.84375 -55.441406 6.84375 -60.234375 C 6.84375 -65.035156 7.859375 -69.375 9.890625 -73.25 C 11.929688 -77.132812 14.789062 -80.238281 18.46875 -82.5625 C 22.15625 -84.882812 26.359375 -86.164062 31.078125 -86.40625 C 33.316406 -86.5625 36.054688 -86.476562 39.296875 -86.15625 C 42.535156 -85.84375 46.914062 -84.722656 52.4375 -82.796875 L 50.28125 -66.234375 C 45.5625 -68.160156 41.800781 -69.257812 39 -69.53125 C 36.195312 -69.8125 34.117188 -69.914062 32.765625 -69.84375 C 29.722656 -69.675781 27.5 -68.632812 26.09375 -66.71875 C 24.695312 -64.800781 24.078125 -62.640625 24.234375 -60.234375 C 24.472656 -57.835938 25.515625 -56.019531 27.359375 -54.78125 C 29.203125 -53.539062 31.363281 -52.476562 33.84375 -51.59375 C 38.320312 -50 42.441406 -48.019531 46.203125 -45.65625 C 49.960938 -43.300781 52.984375 -40.460938 55.265625 -37.140625 C 57.546875 -33.816406 58.6875 -29.875 58.6875 -25.3125 C 58.6875 -20.59375 57.644531 -16.3125 55.5625 -12.46875 C 53.476562 -8.632812 50.492188 -5.554688 46.609375 -3.234375 C 42.734375 -0.921875 38.117188 0.394531 32.765625 0.71875 C 31.160156 0.800781 28.976562 0.738281 26.21875 0.53125 C 23.457031 0.332031 20.316406 -0.222656 16.796875 -1.140625 C 13.273438 -2.054688 9.554688 -3.515625 5.640625 -5.515625 Z M 5.640625 -5.515625 "/></g></g></g><g fill="#000000" fill-opacity="1"><g transform="translate(1053.268472, 813.774174)"><g><path d="M 54 0 L 9.59375 0 L 9.59375 -85.796875 L 52.5625 -85.796875 L 52.5625 -68.640625 L 26.765625 -68.640625 L 26.765625 -51.484375 L 49.3125 -51.484375 L 49.3125 -34.3125 L 26.765625 -34.3125 L 26.765625 -17.15625 L 54 -17.15625 Z M 54 0 "/></g></g></g><g fill="#000000" fill-opacity="1"><g transform="translate(1113.748524, 813.774174)"><g><path d="M 52.3125 0 L 35.046875 -32.765625 L 26.765625 -32.765625 L 26.765625 0 L 9.59375 0 L 9.59375 -85.796875 L 43.4375 -85.796875 C 48.5625 -85.796875 52.898438 -84.734375 56.453125 -82.609375 C 60.015625 -80.492188 62.796875 -77.734375 64.796875 -74.328125 C 66.796875 -70.929688 68.035156 -67.253906 68.515625 -63.296875 C 68.992188 -59.335938 68.691406 -55.457031 67.609375 -51.65625 C 66.535156 -47.851562 64.695312 -44.492188 62.09375 -41.578125 C 59.5 -38.660156 56.082031 -36.601562 51.84375 -35.40625 L 71.765625 0 Z M 26.765625 -49.4375 L 41.875 -49.4375 C 44.195312 -49.4375 46.054688 -50.078125 47.453125 -51.359375 C 48.859375 -52.640625 49.800781 -54.238281 50.28125 -56.15625 C 50.757812 -58.082031 50.757812 -60.003906 50.28125 -61.921875 C 49.800781 -63.835938 48.859375 -65.4375 47.453125 -66.71875 C 46.054688 -68 44.195312 -68.640625 41.875 -68.640625 L 26.765625 -68.640625 Z M 26.765625 -49.4375 "/></g></g></g><g fill="#000000" fill-opacity="1"><g transform="translate(1187.30853, 813.774174)"><g><path d="M 36.234375 1.796875 L 0.71875 -85.796875 L 20.515625 -85.796875 L 31.921875 -57.234375 L 38.15625 -39.484375 L 44.28125 -56.640625 L 55.796875 -85.796875 L 75.59375 -85.796875 L 40.078125 1.796875 Z M 36.234375 1.796875 "/></g></g></g><g fill="#000000" fill-opacity="1"><g transform="translate(1263.748602, 813.774174)"><g><path d="M 26.765625 0 L 9.59375 0 L 9.59375 -85.796875 L 26.765625 -85.796875 Z M 26.765625 0 "/></g></g></g><g fill="#000000" fill-opacity="1"><g transform="translate(1300.22861, 813.774174)"><g><path d="M 64.203125 -65.875 C 62.597656 -66.757812 60.65625 -67.597656 58.375 -68.390625 C 56.09375 -69.191406 53.070312 -69.59375 49.3125 -69.59375 C 44.4375 -69.59375 40.28125 -68.648438 36.84375 -66.765625 C 33.40625 -64.890625 30.644531 -62.390625 28.5625 -59.265625 C 26.476562 -56.148438 25.078125 -52.734375 24.359375 -49.015625 C 23.640625 -45.296875 23.640625 -41.578125 24.359375 -37.859375 C 25.078125 -34.140625 26.476562 -30.71875 28.5625 -27.59375 C 30.644531 -24.476562 33.40625 -21.976562 36.84375 -20.09375 C 40.28125 -18.21875 44.4375 -17.28125 49.3125 -17.28125 C 53.070312 -17.28125 56.375 -17.71875 59.21875 -18.59375 C 62.0625 -19.476562 64.28125 -20.320312 65.875 -21.125 L 68.15625 -3.359375 C 65.519531 -2.316406 62.476562 -1.457031 59.03125 -0.78125 C 55.59375 -0.101562 52.351562 0.234375 49.3125 0.234375 C 42.039062 0.234375 35.679688 -0.984375 30.234375 -3.421875 C 24.796875 -5.859375 20.253906 -9.15625 16.609375 -13.3125 C 12.972656 -17.476562 10.253906 -22.140625 8.453125 -27.296875 C 6.660156 -32.460938 5.765625 -37.800781 5.765625 -43.3125 C 5.765625 -48.832031 6.660156 -54.171875 8.453125 -59.328125 C 10.253906 -64.492188 12.972656 -69.15625 16.609375 -73.3125 C 20.253906 -77.476562 24.796875 -80.78125 30.234375 -83.21875 C 35.679688 -85.65625 42.039062 -86.875 49.3125 -86.875 C 55.5625 -86.875 61.203125 -85.753906 66.234375 -83.515625 Z M 64.203125 -65.875 "/></g></g></g><g fill="#000000" fill-opacity="1"><g transform="translate(1372.468655, 813.774174)"><g><path d="M 54 0 L 9.59375 0 L 9.59375 -85.796875 L 52.5625 -85.796875 L 52.5625 -68.640625 L 26.765625 -68.640625 L 26.765625 -51.484375 L 49.3125 -51.484375 L 49.3125 -34.3125 L 26.765625 -34.3125 L 26.765625 -17.15625 L 54 -17.15625 Z M 54 0 "/></g></g></g><g fill="#000000" fill-opacity="1"><g transform="translate(1432.948661, 813.774174)"><g><path d="M 5.640625 -5.515625 L 7.796875 -23.515625 C 11.078125 -21.203125 14.335938 -19.546875 17.578125 -18.546875 C 20.816406 -17.546875 23.753906 -16.960938 26.390625 -16.796875 C 29.035156 -16.640625 31 -16.601562 32.28125 -16.6875 C 34.84375 -16.84375 37.019531 -17.738281 38.8125 -19.375 C 40.613281 -21.019531 41.394531 -23 41.15625 -25.3125 C 41 -27.800781 40.078125 -29.679688 38.390625 -30.953125 C 36.710938 -32.234375 34.675781 -33.273438 32.28125 -34.078125 C 27.800781 -35.753906 23.617188 -37.691406 19.734375 -39.890625 C 15.859375 -42.097656 12.738281 -44.84375 10.375 -48.125 C 8.019531 -51.40625 6.84375 -55.441406 6.84375 -60.234375 C 6.84375 -65.035156 7.859375 -69.375 9.890625 -73.25 C 11.929688 -77.132812 14.789062 -80.238281 18.46875 -82.5625 C 22.15625 -84.882812 26.359375 -86.164062 31.078125 -86.40625 C 33.316406 -86.5625 36.054688 -86.476562 39.296875 -86.15625 C 42.535156 -85.84375 46.914062 -84.722656 52.4375 -82.796875 L 50.28125 -66.234375 C 45.5625 -68.160156 41.800781 -69.257812 39 -69.53125 C 36.195312 -69.8125 34.117188 -69.914062 32.765625 -69.84375 C 29.722656 -69.675781 27.5 -68.632812 26.09375 -66.71875 C 24.695312 -64.800781 24.078125 -62.640625 24.234375 -60.234375 C 24.472656 -57.835938 25.515625 -56.019531 27.359375 -54.78125 C 29.203125 -53.539062 31.363281 -52.476562 33.84375 -51.59375 C 38.320312 -50 42.441406 -48.019531 46.203125 -45.65625 C 49.960938 -43.300781 52.984375 -40.460938 55.265625 -37.140625 C 57.546875 -33.816406 58.6875 -29.875 58.6875 -25.3125 C 58.6875 -20.59375 57.644531 -16.3125 55.5625 -12.46875 C 53.476562 -8.632812 50.492188 -5.554688 46.609375 -3.234375 C 42.734375 -0.921875 38.117188 0.394531 32.765625 0.71875 C 31.160156 0.800781 28.976562 0.738281 26.21875 0.53125 C 23.457031 0.332031 20.316406 -0.222656 16.796875 -1.140625 C 13.273438 -2.054688 9.554688 -3.515625 5.640625 -5.515625 Z M 5.640625 -5.515625 "/></g></g></g></svg>