<svg xmlns="http://www.w3.org/2000/svg" xmlns:xlink="http://www.w3.org/1999/xlink" width="2000" zoomAndPan="magnify" viewBox="0 0 1500 1499.999933" height="2000" preserveAspectRatio="xMidYMid meet" version="1.0"><defs><g/><clipPath id="fccea167c1"><path d="M 253 603 L 1281 603 L 1281 967.191406 L 253 967.191406 Z M 253 603 " clip-rule="nonzero"/></clipPath><clipPath id="65123b3622"><path d="M 83.375 508 L 1451 508 L 1451 967.191406 L 83.375 967.191406 Z M 83.375 508 " clip-rule="nonzero"/></clipPath><clipPath id="883c963d1d"><path d="M 665 889 L 744 889 L 744 967.191406 L 665 967.191406 Z M 665 889 " clip-rule="nonzero"/></clipPath><clipPath id="a02ae57488"><path d="M 780 889 L 859 889 L 859 967.191406 L 780 967.191406 Z M 780 889 " clip-rule="nonzero"/></clipPath></defs><g clip-path="url(#fccea167c1)"><path fill="#000000" d="M 1280.566406 952.632812 L 1280.566406 967.046875 L 957.640625 749.644531 L 879.460938 697.019531 L 802.839844 645.4375 L 767.191406 621.4375 L 701.507812 665.664062 L 621.144531 719.773438 L 608.347656 728.382812 L 556.8125 763.0625 L 552.546875 765.925781 L 253.820312 967.046875 L 253.820312 952.632812 L 544.894531 754.488281 L 549.578125 751.308594 L 600.765625 716.457031 L 613.234375 707.964844 L 701.507812 647.882812 L 767.191406 603.171875 L 802.839844 627.433594 L 887.359375 684.972656 L 965.511719 738.160156 Z M 1280.566406 952.632812 " fill-opacity="1" fill-rule="nonzero"/></g><g clip-path="url(#65123b3622)"><path fill="#000000" d="M 1329.59375 967.046875 L 1329.59375 946.863281 L 982.917969 712.78125 L 904.015625 659.503906 L 802.839844 591.183594 L 767.191406 567.113281 L 701.507812 611.464844 L 596.230469 682.550781 L 584.339844 690.585938 L 533.386719 724.996094 L 527.707031 728.824219 L 204.78125 946.863281 L 204.78125 967.046875 L 83.644531 967.046875 L 500.140625 687.628906 L 507.390625 682.761719 L 557.871094 648.90625 L 568.800781 641.574219 L 701.507812 552.535156 L 767.191406 508.472656 L 802.839844 532.390625 L 930.96875 618.339844 L 1010.914062 671.976562 L 1450.734375 967.046875 Z M 1329.59375 967.046875 " fill-opacity="1" fill-rule="nonzero"/></g><path fill="#000000" d="M 958.914062 106.785156 L 958.914062 245.257812 C 958.914062 258.117188 948.496094 268.539062 935.632812 268.539062 L 902.90625 268.539062 C 890.046875 268.539062 879.613281 258.121094 879.613281 245.257812 C 879.613281 238.820312 877.007812 232.992188 872.796875 228.78125 C 868.570312 224.570312 862.746094 221.964844 856.320312 221.964844 L 802.835938 221.964844 L 802.835938 535.445312 L 767.1875 511.382812 L 701.503906 555.726562 L 701.503906 181.054688 C 632.058594 153.574219 586.535156 181.054688 564.925781 263.507812 L 564.925781 216.492188 C 564.925781 173.707031 585.464844 133.300781 620.515625 108.761719 C 668.746094 74.980469 723.332031 62.707031 785.015625 74.386719 C 798.269531 76.894531 807.867188 88.480469 807.867188 101.953125 L 807.867188 138.882812 L 853.808594 138.882812 C 866.671875 138.882812 877.101562 128.464844 877.101562 115.601562 L 877.101562 106.78125 C 877.101562 93.917969 887.535156 83.5 900.394531 83.5 L 935.636719 83.5 C 948.496094 83.507812 958.914062 93.925781 958.914062 106.785156 Z M 958.914062 106.785156 " fill-opacity="1" fill-rule="nonzero"/><path fill="#000000" d="M 1232.152344 468.5625 C 1227.953125 489.410156 1218.527344 508.105469 1205.410156 523.457031 C 1183.078125 549.625 1150.011719 566.105469 1113.796875 567.09375 L 1082.273438 567.941406 L 1010.914062 671.976562 L 982.917969 712.785156 L 904.015625 659.511719 L 930.96875 618.34375 L 1009.269531 498.707031 C 1009.351562 496.941406 1009.441406 495.183594 1009.542969 493.4375 C 1017.75 347.660156 1074.585938 281.445312 1196.375 321.492188 C 1197.355469 321.8125 1198.351562 322.144531 1199.347656 322.488281 L 1198.351562 323.238281 L 1127.804688 376.148438 C 1111.824219 388.128906 1108.859375 410.9375 1121.242188 426.601562 C 1128.21875 435.425781 1138.613281 440.09375 1149.140625 440.09375 C 1155.859375 440.09375 1162.640625 438.1875 1168.632812 434.246094 L 1237.109375 389.207031 C 1238.394531 417.800781 1237.011719 444.445312 1232.152344 468.5625 Z M 1232.152344 468.5625 " fill-opacity="1" fill-rule="nonzero"/><path fill="#000000" d="M 665.164062 779.5625 L 743.003906 779.5625 L 743.003906 857.40625 L 665.164062 857.40625 Z M 665.164062 779.5625 " fill-opacity="1" fill-rule="nonzero"/><path fill="#000000" d="M 780.839844 779.5625 L 858.683594 779.5625 L 858.683594 857.40625 L 780.839844 857.40625 Z M 780.839844 779.5625 " fill-opacity="1" fill-rule="nonzero"/><g clip-path="url(#883c963d1d)"><path fill="#000000" d="M 665.164062 889.203125 L 743.003906 889.203125 L 743.003906 967.046875 L 665.164062 967.046875 Z M 665.164062 889.203125 " fill-opacity="1" fill-rule="nonzero"/></g><g clip-path="url(#a02ae57488)"><path fill="#000000" d="M 780.839844 889.203125 L 858.683594 889.203125 L 858.683594 967.046875 L 780.839844 967.046875 Z M 780.839844 889.203125 " fill-opacity="1" fill-rule="nonzero"/></g><path fill="#000000" d="M 568.800781 641.574219 L 539.269531 597.460938 C 537.699219 595.121094 534.539062 594.492188 532.191406 596.058594 L 530.996094 596.855469 C 528.617188 598.453125 525.390625 597.769531 523.859375 595.351562 L 394.460938 391.582031 C 393.996094 390.859375 393.8125 389.988281 393.921875 389.128906 L 402.078125 329.769531 C 402.347656 327.804688 401.007812 325.988281 399.066406 325.652344 L 316.855469 297.53125 L 297.769531 388.484375 C 297.230469 390.316406 298.171875 392.246094 299.945312 392.941406 L 337.214844 407.621094 C 337.953125 407.914062 338.578125 408.433594 339 409.105469 L 474.265625 628.917969 C 475.703125 631.25 475.035156 634.304688 472.757812 635.832031 L 471.96875 636.359375 C 469.628906 637.929688 469 641.097656 470.566406 643.433594 L 500.148438 687.621094 L 527.714844 728.824219 L 533.386719 724.992188 L 584.347656 690.578125 L 596.234375 682.546875 Z M 568.800781 641.574219 " fill-opacity="1" fill-rule="nonzero"/><path fill="#000000" d="M 621.144531 719.773438 L 613.234375 707.964844 L 600.765625 716.457031 L 549.578125 751.308594 L 544.894531 754.488281 L 552.546875 765.925781 Z M 621.144531 719.773438 " fill-opacity="1" fill-rule="nonzero"/><g fill="#2e6417" fill-opacity="1"><g transform="translate(50.607703, 1222.040899)"><g><path d="M 4.796875 0 L 95.09375 -222.296875 L 99.59375 -222.296875 L 189.90625 0 L 141.59375 0 L 132.90625 -23.09375 L 61.796875 -23.09375 L 53.40625 0 Z M 77.40625 -63.296875 L 117 -63.296875 L 97.5 -119.09375 Z M 77.40625 -63.296875 "/></g></g></g><g fill="#2e6417" fill-opacity="1"><g transform="translate(246.507372, 1222.040899)"><g><path d="M 130.796875 0 L 87.59375 -81.90625 L 66.90625 -81.90625 L 66.90625 0 L 24 0 L 24 -214.5 L 108.59375 -214.5 C 121.394531 -214.5 132.242188 -211.847656 141.140625 -206.546875 C 150.046875 -201.242188 157 -194.34375 162 -185.84375 C 167 -177.34375 170.097656 -168.144531 171.296875 -158.25 C 172.492188 -148.351562 171.742188 -138.65625 169.046875 -129.15625 C 166.347656 -119.65625 161.75 -111.253906 155.25 -103.953125 C 148.75 -96.648438 140.195312 -91.5 129.59375 -88.5 L 179.40625 0 Z M 66.90625 -123.59375 L 104.703125 -123.59375 C 110.503906 -123.59375 115.15625 -125.191406 118.65625 -128.390625 C 122.15625 -131.597656 124.503906 -135.597656 125.703125 -140.390625 C 126.898438 -145.191406 126.898438 -149.992188 125.703125 -154.796875 C 124.503906 -159.597656 122.15625 -163.597656 118.65625 -166.796875 C 115.15625 -169.992188 110.503906 -171.59375 104.703125 -171.59375 L 66.90625 -171.59375 Z M 66.90625 -123.59375 "/></g></g></g><g fill="#2e6417" fill-opacity="1"><g transform="translate(430.407041, 1222.040899)"><g><path d="M 135 0 L 24 0 L 24 -214.5 L 131.40625 -214.5 L 131.40625 -171.59375 L 66.90625 -171.59375 L 66.90625 -128.703125 L 123.296875 -128.703125 L 123.296875 -85.796875 L 66.90625 -85.796875 L 66.90625 -42.90625 L 135 -42.90625 Z M 135 0 "/></g></g></g><g fill="#2e6417" fill-opacity="1"><g transform="translate(581.606825, 1222.040899)"><g><path d="M 66.90625 -116.703125 L 66.90625 0 L 24 0 L 24 -219 L 35.40625 -219 L 143.703125 -93 L 143.703125 -214.203125 L 186.90625 -214.203125 L 186.90625 4.5 L 175.5 4.5 Z M 66.90625 -116.703125 "/></g></g></g><g fill="#2e6417" fill-opacity="1"><g transform="translate(792.806424, 1222.040899)"><g><path d="M 87.90625 -214.5 C 105.695312 -214.5 121.289062 -211.5 134.6875 -205.5 C 148.09375 -199.5 159.242188 -191.398438 168.140625 -181.203125 C 177.046875 -171.003906 183.75 -159.503906 188.25 -146.703125 C 192.75 -133.898438 195 -120.75 195 -107.25 C 195 -93.75 192.75 -80.597656 188.25 -67.796875 C 183.75 -54.992188 177.046875 -43.492188 168.140625 -33.296875 C 159.242188 -23.097656 148.09375 -15 134.6875 -9 C 121.289062 -3 105.695312 0 87.90625 0 L 24 0 L 24 -214.5 Z M 87.90625 -171.59375 L 66.90625 -171.59375 L 66.90625 -42.90625 L 87.90625 -42.90625 C 99.90625 -42.90625 110.15625 -45.203125 118.65625 -49.796875 C 127.15625 -54.398438 133.953125 -60.550781 139.046875 -68.25 C 144.148438 -75.945312 147.550781 -84.394531 149.25 -93.59375 C 150.945312 -102.800781 150.945312 -111.953125 149.25 -121.046875 C 147.550781 -130.148438 144.148438 -138.550781 139.046875 -146.25 C 133.953125 -153.945312 127.15625 -160.09375 118.65625 -164.6875 C 110.15625 -169.289062 99.90625 -171.59375 87.90625 -171.59375 Z M 87.90625 -171.59375 "/></g></g></g><g fill="#2e6417" fill-opacity="1"><g transform="translate(1004.006024, 1222.040899)"><g><path d="M 135 0 L 24 0 L 24 -214.5 L 131.40625 -214.5 L 131.40625 -171.59375 L 66.90625 -171.59375 L 66.90625 -128.703125 L 123.296875 -128.703125 L 123.296875 -85.796875 L 66.90625 -85.796875 L 66.90625 -42.90625 L 135 -42.90625 Z M 135 0 "/></g></g></g><g fill="#2e6417" fill-opacity="1"><g transform="translate(1155.205808, 1222.040899)"><g><path d="M 24 -214.5 L 66.90625 -214.5 L 66.90625 -42.90625 L 135 -42.90625 L 135 0 L 24 0 Z M 24 -214.5 "/></g></g></g><g fill="#2e6417" fill-opacity="1"><g transform="translate(1303.105481, 1222.040899)"><g><path d="M 24 -214.5 L 66.90625 -214.5 L 66.90625 -42.90625 L 135 -42.90625 L 135 0 L 24 0 Z M 24 -214.5 "/></g></g></g><g fill="#000000" fill-opacity="1"><g transform="translate(199.945329, 1364.540958)"><g><path d="M 87 0 L 65.546875 0 L 65.546875 -42.90625 L 33.453125 -42.90625 L 33.453125 0 L 12 0 L 12 -107.25 L 33.453125 -107.25 L 33.453125 -64.34375 L 65.546875 -64.34375 L 65.546875 -107.25 L 87 -107.25 Z M 87 0 "/></g></g></g><g fill="#000000" fill-opacity="1"><g transform="translate(299.095341, 1364.540958)"><g><path d="M 63.59375 1.5 C 54.394531 1.5 46.320312 -0.046875 39.375 -3.140625 C 32.425781 -6.242188 26.648438 -10.421875 22.046875 -15.671875 C 17.453125 -20.921875 14.003906 -26.84375 11.703125 -33.4375 C 9.398438 -40.039062 8.25 -46.816406 8.25 -53.765625 C 8.25 -60.722656 9.398438 -67.5 11.703125 -74.09375 C 14.003906 -80.695312 17.453125 -86.625 22.046875 -91.875 C 26.648438 -97.125 32.425781 -101.296875 39.375 -104.390625 C 46.320312 -107.492188 54.394531 -109.046875 63.59375 -109.046875 C 72.800781 -109.046875 80.878906 -107.492188 87.828125 -104.390625 C 94.773438 -101.296875 100.546875 -97.125 105.140625 -91.875 C 109.742188 -86.625 113.195312 -80.695312 115.5 -74.09375 C 117.800781 -67.5 118.953125 -60.722656 118.953125 -53.765625 C 118.953125 -46.816406 117.800781 -40.039062 115.5 -33.4375 C 113.195312 -26.84375 109.742188 -20.921875 105.140625 -15.671875 C 100.546875 -10.421875 94.773438 -6.242188 87.828125 -3.140625 C 80.878906 -0.046875 72.800781 1.5 63.59375 1.5 Z M 63.59375 -20.703125 C 69.695312 -20.703125 74.945312 -21.898438 79.34375 -24.296875 C 83.75 -26.703125 87.25 -29.878906 89.84375 -33.828125 C 92.445312 -37.773438 94.195312 -42.097656 95.09375 -46.796875 C 96 -51.492188 96 -56.191406 95.09375 -60.890625 C 94.195312 -65.597656 92.445312 -69.925781 89.84375 -73.875 C 87.25 -77.820312 83.75 -80.992188 79.34375 -83.390625 C 74.945312 -85.796875 69.695312 -87 63.59375 -87 C 57.5 -87 52.25 -85.796875 47.84375 -83.390625 C 43.445312 -80.992188 39.945312 -77.820312 37.34375 -73.875 C 34.75 -69.925781 33 -65.597656 32.09375 -60.890625 C 31.195312 -56.191406 31.195312 -51.492188 32.09375 -46.796875 C 33 -42.097656 34.75 -37.773438 37.34375 -33.828125 C 39.945312 -29.878906 43.445312 -26.703125 47.84375 -24.296875 C 52.25 -21.898438 57.5 -20.703125 63.59375 -20.703125 Z M 63.59375 -20.703125 "/></g></g></g><g fill="#000000" fill-opacity="1"><g transform="translate(426.14536, 1364.540958)"><g><path d="M 61.203125 -61.796875 L 103.5 -108.90625 L 110.25 -108.90625 L 110.25 0 L 88.5 0 L 88.65625 -59.84375 L 61.203125 -31.046875 L 33.75 -59.84375 L 33.75 0 L 12 0 L 12 -108.90625 L 18.90625 -108.90625 Z M 61.203125 -61.796875 "/></g></g></g><g fill="#000000" fill-opacity="1"><g transform="translate(548.545381, 1364.540958)"><g><path d="M 67.5 0 L 12 0 L 12 -107.25 L 65.703125 -107.25 L 65.703125 -85.796875 L 33.453125 -85.796875 L 33.453125 -64.34375 L 61.65625 -64.34375 L 61.65625 -42.90625 L 33.453125 -42.90625 L 33.453125 -21.453125 L 67.5 -21.453125 Z M 67.5 0 "/></g></g></g><g fill="#000000" fill-opacity="1"><g transform="translate(624.145366, 1364.540958)"><g/></g></g><g fill="#000000" fill-opacity="1"><g transform="translate(666.745399, 1364.540958)"><g><path d="M 7.046875 -6.90625 L 9.75 -29.40625 C 13.851562 -26.5 17.925781 -24.421875 21.96875 -23.171875 C 26.019531 -21.921875 29.695312 -21.195312 33 -21 C 36.300781 -20.800781 38.75 -20.75 40.34375 -20.84375 C 43.550781 -21.050781 46.28125 -22.175781 48.53125 -24.21875 C 50.78125 -26.269531 51.753906 -28.75 51.453125 -31.65625 C 51.253906 -34.75 50.101562 -37.09375 48 -38.6875 C 45.894531 -40.289062 43.34375 -41.59375 40.34375 -42.59375 C 34.75 -44.695312 29.523438 -47.125 24.671875 -49.875 C 19.828125 -52.625 15.925781 -56.046875 12.96875 -60.140625 C 10.019531 -64.242188 8.546875 -69.296875 8.546875 -75.296875 C 8.546875 -81.296875 9.820312 -86.71875 12.375 -91.5625 C 14.925781 -96.414062 18.5 -100.289062 23.09375 -103.1875 C 27.695312 -106.09375 32.945312 -107.695312 38.84375 -108 C 41.644531 -108.195312 45.070312 -108.09375 49.125 -107.6875 C 53.175781 -107.289062 58.648438 -105.894531 65.546875 -103.5 L 62.84375 -82.796875 C 56.945312 -85.203125 52.25 -86.578125 48.75 -86.921875 C 45.25 -87.273438 42.648438 -87.398438 40.953125 -87.296875 C 37.148438 -87.097656 34.375 -85.796875 32.625 -83.390625 C 30.875 -80.992188 30.097656 -78.296875 30.296875 -75.296875 C 30.597656 -72.296875 31.898438 -70.019531 34.203125 -68.46875 C 36.503906 -66.925781 39.203125 -65.601562 42.296875 -64.5 C 47.898438 -62.5 53.050781 -60.023438 57.75 -57.078125 C 62.445312 -54.128906 66.21875 -50.578125 69.0625 -46.421875 C 71.914062 -42.273438 73.34375 -37.351562 73.34375 -31.65625 C 73.34375 -25.75 72.039062 -20.394531 69.4375 -15.59375 C 66.84375 -10.800781 63.117188 -6.953125 58.265625 -4.046875 C 53.421875 -1.148438 47.648438 0.5 40.953125 0.90625 C 38.953125 1 36.222656 0.921875 32.765625 0.671875 C 29.316406 0.421875 25.394531 -0.273438 21 -1.421875 C 16.601562 -2.578125 11.953125 -4.40625 7.046875 -6.90625 Z M 7.046875 -6.90625 "/></g></g></g><g fill="#000000" fill-opacity="1"><g transform="translate(746.095429, 1364.540958)"><g><path d="M 67.5 0 L 12 0 L 12 -107.25 L 65.703125 -107.25 L 65.703125 -85.796875 L 33.453125 -85.796875 L 33.453125 -64.34375 L 61.65625 -64.34375 L 61.65625 -42.90625 L 33.453125 -42.90625 L 33.453125 -21.453125 L 67.5 -21.453125 Z M 67.5 0 "/></g></g></g><g fill="#000000" fill-opacity="1"><g transform="translate(821.695413, 1364.540958)"><g><path d="M 65.40625 0 L 43.796875 -40.953125 L 33.453125 -40.953125 L 33.453125 0 L 12 0 L 12 -107.25 L 54.296875 -107.25 C 60.703125 -107.25 66.128906 -105.921875 70.578125 -103.265625 C 75.023438 -100.617188 78.5 -97.171875 81 -92.921875 C 83.5 -88.671875 85.046875 -84.070312 85.640625 -79.125 C 86.242188 -74.175781 85.867188 -69.328125 84.515625 -64.578125 C 83.171875 -59.828125 80.875 -55.625 77.625 -51.96875 C 74.375 -48.320312 70.097656 -45.75 64.796875 -44.25 L 89.703125 0 Z M 33.453125 -61.796875 L 52.34375 -61.796875 C 55.25 -61.796875 57.578125 -62.59375 59.328125 -64.1875 C 61.078125 -65.789062 62.25 -67.789062 62.84375 -70.1875 C 63.445312 -72.59375 63.445312 -74.992188 62.84375 -77.390625 C 62.25 -79.796875 61.078125 -81.796875 59.328125 -83.390625 C 57.578125 -84.992188 55.25 -85.796875 52.34375 -85.796875 L 33.453125 -85.796875 Z M 33.453125 -61.796875 "/></g></g></g><g fill="#000000" fill-opacity="1"><g transform="translate(913.645433, 1364.540958)"><g><path d="M 45.296875 2.25 L 0.90625 -107.25 L 25.65625 -107.25 L 39.90625 -71.546875 L 47.703125 -49.34375 L 55.34375 -70.796875 L 69.75 -107.25 L 94.5 -107.25 L 50.09375 2.25 Z M 45.296875 2.25 "/></g></g></g><g fill="#000000" fill-opacity="1"><g transform="translate(1009.195443, 1364.540958)"><g><path d="M 33.453125 0 L 12 0 L 12 -107.25 L 33.453125 -107.25 Z M 33.453125 0 "/></g></g></g><g fill="#000000" fill-opacity="1"><g transform="translate(1054.795476, 1364.540958)"><g><path d="M 80.25 -82.34375 C 78.25 -83.445312 75.820312 -84.5 72.96875 -85.5 C 70.125 -86.5 66.351562 -87 61.65625 -87 C 55.550781 -87 50.347656 -85.820312 46.046875 -83.46875 C 41.742188 -81.125 38.289062 -78 35.6875 -74.09375 C 33.09375 -70.195312 31.34375 -65.921875 30.4375 -61.265625 C 29.539062 -56.617188 29.539062 -51.96875 30.4375 -47.3125 C 31.34375 -42.664062 33.09375 -38.394531 35.6875 -34.5 C 38.289062 -30.601562 41.742188 -27.476562 46.046875 -25.125 C 50.347656 -22.769531 55.550781 -21.59375 61.65625 -21.59375 C 66.351562 -21.59375 70.472656 -22.144531 74.015625 -23.25 C 77.566406 -24.351562 80.34375 -25.40625 82.34375 -26.40625 L 85.203125 -4.203125 C 81.898438 -2.898438 78.097656 -1.820312 73.796875 -0.96875 C 69.492188 -0.125 65.445312 0.296875 61.65625 0.296875 C 52.550781 0.296875 44.597656 -1.222656 37.796875 -4.265625 C 30.992188 -7.316406 25.316406 -11.441406 20.765625 -16.640625 C 16.222656 -21.847656 12.828125 -27.675781 10.578125 -34.125 C 8.328125 -40.570312 7.203125 -47.242188 7.203125 -54.140625 C 7.203125 -61.046875 8.328125 -67.722656 10.578125 -74.171875 C 12.828125 -80.617188 16.222656 -86.441406 20.765625 -91.640625 C 25.316406 -96.847656 30.992188 -100.972656 37.796875 -104.015625 C 44.597656 -107.066406 52.550781 -108.59375 61.65625 -108.59375 C 69.445312 -108.59375 76.492188 -107.195312 82.796875 -104.40625 Z M 80.25 -82.34375 "/></g></g></g><g fill="#000000" fill-opacity="1"><g transform="translate(1145.095486, 1364.540958)"><g><path d="M 67.5 0 L 12 0 L 12 -107.25 L 65.703125 -107.25 L 65.703125 -85.796875 L 33.453125 -85.796875 L 33.453125 -64.34375 L 61.65625 -64.34375 L 61.65625 -42.90625 L 33.453125 -42.90625 L 33.453125 -21.453125 L 67.5 -21.453125 Z M 67.5 0 "/></g></g></g><g fill="#000000" fill-opacity="1"><g transform="translate(1220.695425, 1364.540958)"><g><path d="M 7.046875 -6.90625 L 9.75 -29.40625 C 13.851562 -26.5 17.925781 -24.421875 21.96875 -23.171875 C 26.019531 -21.921875 29.695312 -21.195312 33 -21 C 36.300781 -20.800781 38.75 -20.75 40.34375 -20.84375 C 43.550781 -21.050781 46.28125 -22.175781 48.53125 -24.21875 C 50.78125 -26.269531 51.753906 -28.75 51.453125 -31.65625 C 51.253906 -34.75 50.101562 -37.09375 48 -38.6875 C 45.894531 -40.289062 43.34375 -41.59375 40.34375 -42.59375 C 34.75 -44.695312 29.523438 -47.125 24.671875 -49.875 C 19.828125 -52.625 15.925781 -56.046875 12.96875 -60.140625 C 10.019531 -64.242188 8.546875 -69.296875 8.546875 -75.296875 C 8.546875 -81.296875 9.820312 -86.71875 12.375 -91.5625 C 14.925781 -96.414062 18.5 -100.289062 23.09375 -103.1875 C 27.695312 -106.09375 32.945312 -107.695312 38.84375 -108 C 41.644531 -108.195312 45.070312 -108.09375 49.125 -107.6875 C 53.175781 -107.289062 58.648438 -105.894531 65.546875 -103.5 L 62.84375 -82.796875 C 56.945312 -85.203125 52.25 -86.578125 48.75 -86.921875 C 45.25 -87.273438 42.648438 -87.398438 40.953125 -87.296875 C 37.148438 -87.097656 34.375 -85.796875 32.625 -83.390625 C 30.875 -80.992188 30.097656 -78.296875 30.296875 -75.296875 C 30.597656 -72.296875 31.898438 -70.019531 34.203125 -68.46875 C 36.503906 -66.925781 39.203125 -65.601562 42.296875 -64.5 C 47.898438 -62.5 53.050781 -60.023438 57.75 -57.078125 C 62.445312 -54.128906 66.21875 -50.578125 69.0625 -46.421875 C 71.914062 -42.273438 73.34375 -37.351562 73.34375 -31.65625 C 73.34375 -25.75 72.039062 -20.394531 69.4375 -15.59375 C 66.84375 -10.800781 63.117188 -6.953125 58.265625 -4.046875 C 53.421875 -1.148438 47.648438 0.5 40.953125 0.90625 C 38.953125 1 36.222656 0.921875 32.765625 0.671875 C 29.316406 0.421875 25.394531 -0.273438 21 -1.421875 C 16.601562 -2.578125 11.953125 -4.40625 7.046875 -6.90625 Z M 7.046875 -6.90625 "/></g></g></g></svg>